# xmcd
#
# Track frame offsets: 
#        150
#        12728
#        36298
#        54929
#        75112
#        92103
#        114120
#        132126
#        154405
#        174878
#        198000
#
# Disc length: 2873 seconds
#
# Revision: 0
# Processed by: cddbd v1.5.2PL0 Copyright (c) Steve Scherf et al.
# Submitted via: ExactAudioCopy v1.0b1
#
DISCID=780b370b
DTITLE=Lisa Bassenge - Nur fort
DYEAR=2011
DGENRE=Blues
TTITLE0=Über Eis
TTITLE1=In dieser Stadt
TTITLE2=Nur fort
TTITLE3=Seit der Himmel
TTITLE4=Girl in the mirror
TTITLE5=Kosmetik
TTITLE6=Auf einer Burg
TTITLE7=Hörst Du nicht mein Herz
TTITLE8=17 Millimeter fehlten
TTITLE9=Leider nur ein Vakuum
TTITLE10=Aus der wilden Weste
EXTD=
EXTT0=
EXTT1=
EXTT2=
EXTT3=
EXTT4=
EXTT5=
EXTT6=
EXTT7=
EXTT8=
EXTT9=
EXTT10=
PLAYORDER=
